# xmcd
#
# Track frame offsets:
#	150
#	11762
#	21745
#	31188
#	39218
#	47638
#	55818
#	61349
#	70564
#	80624
#	89821
#	97940
#	109560
#	118389
#	124763
#	134163
#	143256
#	153861
#	161799
#	170656
#	179884
#	189459
#	199713
#	207302
#	212527
#
# Disc length: 2948 seconds
#
# Revision: 0
# Processed by: cddbd v1.5.2PL0 Copyright (c) Steve Scherf et al.
# Submitted via: dBpowerAMP V4.0
#
DISCID=680b8219
DTITLE=Assorted Artists - 25Great American Country and Folk Artists
DYEAR=1900
DGENRE=Country
TTITLE0=Patsy Cline - Walking After Midnight
TTITLE1=Jerry Wallace - There She Goes
TTITLE2=Wynn Stewart - Above and Beyond
TTITLE3=Hank Locklin - Send Me The Pillow
TTITLE4=Cowboy Copas and Johnny Bond - Alabam
TTITLE5=Moon Mullican - Jole Blon
TTITLE6=Willis Brothers - Ace In The Hole
TTITLE7=Arthur (Guitar) Smith - Bonaparte's Retreat
TTITLE8=Eddie Dean - Hillbilly Heaven
TTITLE9=Webb Pierce - High Geared Daddy
TTITLE10=Jimmy Dean - Release Me
TTITLE11=Archie Campbell - That's Good That's Bad
TTITLE12=George Jones - Ragged But Right
TTITLE13=Red Sovine - One Is A Lonely Number
TTITLE14=Jan Howard - When Will It End
TTITLE15=Tommy Hill - Twin Fiddle Polka
TTITLE16=Hylo Brown - Knoxville Girl
TTITLE17=Sunshine Boy's - Satisfied
TTITLE18=Stringbean - John Henry 
TTITLE19=Carl Story - Tramp On The Street
TTITLE20=Fiddlin' Arthur Smith - Orange Blossom Special
TTITLE21=Lonesome Pine Fiddlers - Great Speckled Bird
TTITLE22=Leon Payne - You Are The One
TTITLE23=Justin Tubb - Mountain Dew
TTITLE24=Bobby Austin - Here Comes The Bride
EXTD=The Full Title is - 25Great American Country and Folk Artists Singing Their Famous Original Hits
EXTT0=
EXTT1=
EXTT2=
EXTT3=
EXTT4=
EXTT5=
EXTT6=
EXTT7=
EXTT8=
EXTT9=
EXTT10=
EXTT11=
EXTT12=
EXTT13=
EXTT14=
EXTT15=
EXTT16=
EXTT17=
EXTT18=
EXTT19=
EXTT20=
EXTT21=
EXTT22=
EXTT23=
EXTT24=
PLAYORDER=
